
        <svg xmlns="http://www.w3.org/2000/svg" xmlns:xlink="http://www.w3.org/1999/xlink" version="1.1" width="3214.285714285714" 
        height="2486.0750256748984" viewBox="0 0 3214.285714285714 2486.0750256748984">
			
			<g transform="scale(10.714285714285714) translate(10, 10)">
				<defs id="SvgjsDefs4754"></defs><g id="SvgjsG4755" featureKey="monogramFeature-0" transform="matrix(2.6814503107191365,0,0,2.6814503107191365,90.8561072086965,-72.65774040208844)" fill="#1d1c1f"><path d="M29.88 35.94 c1.02 -0.36 2.7 -1.26 3.12 -3.18 c0.48 -2.28 -0.6 -3.84 -3.36 -4.32 c-3.06 -0.54 -9.3 0.54 -15.18 3.3 c-5.04 2.4 -10.32 6.06 -11.28 10.2 c-0.9 4.14 1.14 7.38 7.08 12.9 c1.74 1.62 3.24 3.06 4.5 4.38 c6.54 -2.64 19.08 -6.18 20.52 -6.48 c1.56 -0.36 1.86 0.36 0.24 0.66 c-1.38 0.3 -13.26 3.72 -19.98 6.6 c4.62 4.86 6.18 7.98 5.58 11.82 c-0.72 4.8 -6.66 7.5 -12.84 6.9 c-5.94 -0.54 -8.7 -4.02 -8.16 -7.2 c0.78 -4.2 6.18 -8.04 12.06 -11.1 c0.36 -0.24 0.9 -0.42 1.38 -0.66 c-1.14 -1.2 -2.58 -2.58 -4.14 -4.14 c-6.6 -6.24 -8.88 -9.48 -7.92 -13.92 s4.62 -7.8 12.24 -11.16 c7.68 -3.42 12.9 -3.78 16.14 -3.24 c3.54 0.6 4.86 2.94 4.26 5.76 c-0.6 2.52 -3.18 3.78 -3.9 3.84 c-0.72 0.12 -1.08 -0.66 -0.36 -0.96 z M19.74 71.52 c0.48 -3 -0.6 -5.76 -5.4 -10.98 c-0.54 0.24 -0.96 0.48 -1.38 0.72 c-7.38 4.02 -10.98 7.02 -11.58 10.26 c-0.48 2.76 2.04 5.46 6.96 5.82 c6 0.36 10.8 -2.46 11.4 -5.82 z"></path></g><g id="SvgjsG4756" featureKey="nameFeature-0" transform="matrix(0.8466400578314925,0,0,0.8466400578314925,-1.8589285579166637,149.12818028454734)" fill="#302939"><path d="M12.16 24.240000000000002 c5.48 1.16 10.34 2.72 10.34 8.6 c0 4.52 -3.14 7.76 -10.22 7.76 c-5.96 0 -9.68 -2.24 -10.08 -6.6 c-0.04 -0.4 0.2 -0.74 0.56 -0.74 l1.9 0 c0.36 0 0.56 0.3 0.6 0.62 c0.3 2.36 2.86 3.88 7.02 3.88 c4.6 0 7.14 -1.6 7.14 -4.92 c0 -3.92 -2.9 -4.64 -7.26 -5.68 c-5.1 -1.22 -9.28 -2.88 -9.28 -8.24 c0 -4.38 3.04 -7.26 9.12 -7.26 c5.68 0 9.2 2.18 9.64 6.5 c0.04 0.4 -0.2 0.58 -0.56 0.58 l-1.76 0 c-0.36 0 -0.56 -0.14 -0.6 -0.46 c-0.28 -2.24 -2.72 -3.82 -6.72 -3.82 c-3.68 0 -6.12 1.48 -6.12 4.46 c0 3.06 2.26 4.46 6.28 5.32 z M54.5 14.879999999999999 l-7.74 0 l0 22.24 l7.74 0 c0.36 0 0.6 0.24 0.6 0.6 l0 1.68 c0 0.36 -0.24 0.6 -0.6 0.6 l-18.6 0 c-0.36 0 -0.6 -0.24 -0.6 -0.6 l0 -1.68 c0 -0.36 0.24 -0.6 0.6 -0.6 l7.74 0 l0 -22.24 l-7.74 0 c-0.36 0 -0.6 -0.24 -0.6 -0.6 l0 -1.68 c0 -0.36 0.24 -0.6 0.6 -0.6 l18.6 0 c0.36 0 0.6 0.24 0.6 0.6 l0 1.68 c0 0.36 -0.24 0.6 -0.6 0.6 z M75.98 12 c9.72 0 14.64 6.08 14.64 14 s-4.92 14 -14.64 14 l-6.28 0 c-0.36 0 -0.6 -0.24 -0.6 -0.6 l0 -26.8 c0 -0.36 0.24 -0.6 0.6 -0.6 l6.28 0 z M75.98 37.12 c7.68 0 11.48 -4.24 11.48 -11.12 s-3.8 -11.12 -11.48 -11.12 l-3.76 0 l0 22.24 l3.76 0 z M110.5 12 c9.72 0 14.64 6.08 14.64 14 s-4.92 14 -14.64 14 l-6.28 0 c-0.36 0 -0.6 -0.24 -0.6 -0.6 l0 -26.8 c0 -0.36 0.24 -0.6 0.6 -0.6 l6.28 0 z M110.5 37.12 c7.68 0 11.48 -4.24 11.48 -11.12 s-3.8 -11.12 -11.48 -11.12 l-3.76 0 l0 22.24 l3.76 0 z M158.74 12 c0.36 0 0.6 0.24 0.6 0.6 l0 26.8 c0 0.36 -0.24 0.6 -0.6 0.6 l-1.92 0 c-0.36 0 -0.6 -0.24 -0.6 -0.6 l0 -12.28 l-14.96 0 l0 12.28 c0 0.36 -0.24 0.6 -0.6 0.6 l-1.92 0 c-0.36 0 -0.6 -0.24 -0.6 -0.6 l0 -26.8 c0 -0.36 0.24 -0.6 0.6 -0.6 l1.92 0 c0.36 0 0.6 0.24 0.6 0.6 l0 11.64 l14.96 0 l0 -11.64 c0 -0.36 0.24 -0.6 0.6 -0.6 l1.92 0 z M195.92 39.32 c0.16 0.4 -0.04 0.68 -0.48 0.68 l-1.92 0 c-0.32 0 -0.54 -0.12 -0.68 -0.48 l-2.14 -5.72 l-13.48 0 l-2.14 5.72 c-0.14 0.36 -0.36 0.48 -0.68 0.48 l-1.92 0 c-0.44 0 -0.64 -0.28 -0.48 -0.68 l10.24 -26.84 c0.12 -0.32 0.4 -0.48 0.72 -0.48 l2 0 c0.32 0 0.6 0.16 0.72 0.48 z M178.26 31 l11.4 0 l-5.7 -15.2 z M222.78 28.92 l5.48 10.38 c0.22 0.42 0.02 0.7 -0.44 0.7 l-2.06 0 c-0.32 0 -0.54 -0.14 -0.7 -0.44 l-5.36 -10.28 l-0.58 0 l-7.42 0 l0 10.12 c0 0.36 -0.24 0.6 -0.6 0.6 l-1.92 0 c-0.36 0 -0.6 -0.24 -0.6 -0.6 l0 -26.8 c0 -0.36 0.24 -0.6 0.6 -0.6 l9.94 0 c7.04 0 9.76 3.12 9.76 8.64 c0 4.44 -1.76 7.32 -6.1 8.28 z M211.70000000000002 14.879999999999999 l0 11.52 l7.62 0 c3.84 0 6.52 -1.08 6.52 -5.76 s-2.68 -5.76 -6.52 -5.76 l-7.62 0 z M261.48 12 c0.36 0 0.6 0.24 0.6 0.6 l0 1.68 c0 0.36 -0.24 0.6 -0.6 0.6 l-8.64 0 l0 24.52 c0 0.36 -0.24 0.6 -0.6 0.6 l-1.92 0 c-0.36 0 -0.6 -0.24 -0.6 -0.6 l0 -24.52 l-8.64 0 c-0.36 0 -0.6 -0.24 -0.6 -0.6 l0 -1.68 c0 -0.36 0.24 -0.6 0.6 -0.6 l20.4 0 z M295.68 12 c0.36 0 0.6 0.24 0.6 0.6 l0 26.8 c0 0.36 -0.24 0.6 -0.6 0.6 l-1.92 0 c-0.36 0 -0.6 -0.24 -0.6 -0.6 l0 -12.28 l-14.96 0 l0 12.28 c0 0.36 -0.24 0.6 -0.6 0.6 l-1.92 0 c-0.36 0 -0.6 -0.24 -0.6 -0.6 l0 -26.8 c0 -0.36 0.24 -0.6 0.6 -0.6 l1.92 0 c0.36 0 0.6 0.24 0.6 0.6 l0 11.64 l14.96 0 l0 -11.64 c0 -0.36 0.24 -0.6 0.6 -0.6 l1.92 0 z M332.86 39.32 c0.16 0.4 -0.04 0.68 -0.48 0.68 l-1.92 0 c-0.32 0 -0.54 -0.12 -0.68 -0.48 l-2.14 -5.72 l-13.48 0 l-2.14 5.72 c-0.14 0.36 -0.36 0.48 -0.68 0.48 l-1.92 0 c-0.44 0 -0.64 -0.28 -0.48 -0.68 l10.24 -26.84 c0.12 -0.32 0.4 -0.48 0.72 -0.48 l2 0 c0.32 0 0.6 0.16 0.72 0.48 z M315.2 31 l11.4 0 l-5.7 -15.2 z"></path></g><g id="SvgjsG4757" featureKey="sloganFeature-0" transform="matrix(0.566558431948145,0,0,0.566558431948145,47.69575802046515,200.59733486296508)" fill="#302939"><path d="M11.035 20 l-1.1523 -3.2227 l-6.1719 0 l-1.1523 3.2227 l-2.0215 0 l5.0879 -13.809 l2.3438 0 l5.0879 13.809 l-2.0215 0 z M4.3164 15.0781 l4.9609 0 l-2.4805 -6.9629 z M34.48949609375 6.191000000000001 l1.9336 0 l0 13.809 l-2.0996 0 l-7.2168 -10.957 l0 10.957 l-1.9238 0 l0 -13.809 l2.0801 0 l7.2266 10.908 l0 -10.908 z M64.79735390625 20 l0 -13.809 l1.9434 0 l0 13.809 l-1.9434 0 z M89.74584375 6.191000000000001 l1.9336 0 l0 13.809 l-2.0996 0 l-7.2168 -10.957 l0 10.957 l-1.9238 0 l0 -13.809 l2.0801 0 l7.2266 10.908 l0 -10.908 z M109.69484296875 20.18555 c-2.8809 0 -4.9902 -1.377 -5.459 -3.7207 l1.9824 -0.46875 c0.3125 1.6113 1.709 2.5391 3.5449 2.5391 c1.4746 0 2.8906 -0.60547 2.8613 -2.2656 c-0.019531 -1.6406 -1.7969 -2.0898 -3.6816 -2.6074 c-2.1387 -0.58594 -4.2773 -1.2598 -4.2773 -3.7988 c0 -2.5684 2.1191 -3.8574 4.6289 -3.8574 c2.4316 0 4.6191 1.0254 5.1367 3.3984 l-1.8848 0.47852 c-0.3418 -1.5332 -1.6211 -2.2168 -3.1641 -2.2168 c-1.3867 0 -2.7637 0.60547 -2.7637 2.1777 c0 1.4258 1.543 1.8457 3.291 2.3145 c2.1973 0.5957 4.7168 1.2793 4.7168 4.0527 c0 2.793 -2.3438 3.9746 -4.9316 3.9746 z M127.3095609375 20 l0 -13.809 l1.9434 0 l0 13.809 l-1.9434 0 z M148.83055078125 20.18555 c-3.8672 0 -6.8359 -2.6465 -6.8359 -7.0508 c0 -4.4434 2.9883 -7.1289 6.9043 -7.1289 c2.5391 0 4.7168 1.1133 5.9082 3.2227 l-1.7188 0.91797 c-0.86914 -1.6211 -2.4219 -2.373 -4.1895 -2.373 c-2.793 0 -4.9512 1.8945 -4.9512 5.3223 c0 3.3789 2.1094 5.3418 5.0195 5.3418 c2.3438 0 4.1797 -1.3184 4.502 -3.9355 l-4.5117 0 l0 -1.6211 l6.3965 0 l0 7.1191 l-1.582 0 l0 -2.4805 c-0.9082 1.6895 -2.6172 2.666 -4.9414 2.666 z M177.129296875 6.191000000000001 l1.9434 0 l0 13.809 l-1.9434 0 l0 -6.0547 l-6.7871 0 l0 6.0547 l-1.9629 0 l0 -13.809 l1.9629 0 l0 6.0254 l6.7871 0 l0 -6.0254 z M200.12448671875 6.191000000000001 l0 1.748 l-3.4961 0 l0 12.061 l-1.9238 0 l0 -12.061 l-3.5059 0 l0 -1.748 l8.9258 0 z M231.25246015625 20.18555 c-2.8809 0 -4.9902 -1.377 -5.459 -3.7207 l1.9824 -0.46875 c0.3125 1.6113 1.709 2.5391 3.5449 2.5391 c1.4746 0 2.8906 -0.60547 2.8613 -2.2656 c-0.019531 -1.6406 -1.7969 -2.0898 -3.6816 -2.6074 c-2.1387 -0.58594 -4.2773 -1.2598 -4.2773 -3.7988 c0 -2.5684 2.1191 -3.8574 4.6289 -3.8574 c2.4316 0 4.6191 1.0254 5.1367 3.3984 l-1.8848 0.47852 c-0.3418 -1.5332 -1.6211 -2.2168 -3.1641 -2.2168 c-1.3867 0 -2.7637 0.60547 -2.7637 2.1777 c0 1.4258 1.543 1.8457 3.291 2.3145 c2.1973 0.5957 4.7168 1.2793 4.7168 4.0527 c0 2.793 -2.3438 3.9746 -4.9316 3.9746 z M256.220678125 6.191000000000001 l0 1.748 l-3.4961 0 l0 12.061 l-1.9238 0 l0 -12.061 l-3.5059 0 l0 -1.748 l8.9258 0 z M274.28469296875 20.18555 c-3.916 0 -6.9043 -2.6953 -6.9043 -7.0996 c0 -4.3945 2.9883 -7.0801 6.9043 -7.0801 c3.8965 0 6.8945 2.6855 6.8945 7.0801 c0 4.4043 -2.998 7.0996 -6.8945 7.0996 z M274.28469296875 18.3594 c2.7637 0 4.9512 -1.9141 4.9512 -5.2734 c0 -3.3301 -2.1875 -5.2441 -4.9512 -5.2441 c-2.7734 0 -4.9707 1.9141 -4.9707 5.2441 c0 3.3594 2.1973 5.2734 4.9707 5.2734 z M301.3623234375 20 l-3.5742 -6.2109 l-1.9336 0 l0 6.2109 l-1.9434 0 l0 -13.809 l4.6484 0 c2.8906 0 4.209 1.7676 4.209 3.9355 c0 1.9238 -1.1328 3.2617 -3.0273 3.584 l3.8965 6.2891 l-2.2754 0 z M295.8545234375 7.871 l0 4.4336 l2.4414 0 c1.7969 0 2.6074 -0.89844 2.6074 -2.207 c0 -1.2891 -0.81055 -2.2266 -2.6074 -2.2266 l-2.4414 0 z M325.30486328125 6.191000000000001 l-4.541 7.2266 l0 6.582 l-1.9629 0 l0 -6.5723 l-4.5508 -7.2363 l2.207 0 l3.3203 5.4785 l3.3301 -5.4785 l2.1973 0 z"></path></g>
			</g>
		</svg>
	